<?xml version="1.0" standalone="no"?>
<!DOCTYPE svg PUBLIC "-//W3C//DTD SVG 20010904//EN"
 "http://www.w3.org/TR/2001/REC-SVG-20010904/DTD/svg10.dtd">
<svg version="1.0" xmlns="http://www.w3.org/2000/svg"
 width="4031.000000pt" height="4031.000000pt" viewBox="0 0 4031.000000 4031.000000"
 preserveAspectRatio="xMidYMid meet">

<g transform="translate(0.000000,4031.000000) scale(0.100000,-0.100000)"
fill="#000000" stroke="none">
<path d="M24535 35639 c-152 -12 -296 -29 -335 -39 -19 -5 -66 -14 -105 -20
-182 -29 -567 -140 -708 -204 -18 -8 -61 -27 -97 -41 -131 -54 -383 -187 -523
-276 -34 -22 -110 -75 -282 -199 -193 -138 -567 -512 -705 -705 -25 -34 -78
-107 -117 -162 -40 -55 -73 -104 -73 -108 0 -5 -6 -16 -14 -24 -23 -26 -125
-207 -184 -326 -153 -307 -246 -580 -327 -955 -15 -70 -17 -80 -40 -240 -106
-737 36 -1561 384 -2235 134 -258 255 -446 434 -670 52 -65 1027 -1047 2760
-2782 1475 -1475 2679 -2685 2676 -2688 -3 -2 -5356 -6 -11895 -8 -6539 -2
-11902 -6 -11919 -10 -16 -3 -61 -9 -100 -13 -38 -3 -73 -8 -76 -10 -4 -2 -27
-6 -50 -9 -209 -26 -553 -118 -799 -215 -30 -12 -66 -25 -80 -30 -100 -33
-448 -215 -573 -299 -38 -25 -86 -57 -108 -71 -121 -78 -277 -202 -482 -384
-96 -85 -343 -363 -421 -471 -59 -82 -229 -338 -247 -370 -9 -16 -33 -59 -52
-95 -64 -115 -136 -266 -186 -387 -11 -29 -30 -75 -41 -103 -35 -86 -100 -301
-145 -475 -15 -59 -60 -302 -70 -380 -45 -344 -34 -816 25 -1138 58 -316 156
-636 275 -901 415 -926 1196 -1665 2129 -2012 350 -131 645 -197 1041 -235 88
-8 3238 -10 11943 -10 6502 1 11822 -2 11822 -6 0 -4 -1183 -1191 -2628 -2638
-1446 -1446 -2669 -2677 -2719 -2735 -86 -101 -116 -139 -211 -267 -106 -143
-107 -144 -190 -288 -19 -33 -44 -76 -55 -95 -33 -57 -133 -260 -162 -330 -14
-36 -33 -79 -41 -97 -18 -40 -83 -218 -94 -258 -5 -16 -16 -55 -25 -85 -9 -30
-21 -75 -26 -100 -6 -25 -17 -65 -24 -90 -23 -73 -62 -293 -81 -455 -14 -114
-18 -220 -18 -445 1 -384 20 -543 109 -905 169 -686 501 -1271 1005 -1775 662
-663 1495 -1041 2445 -1111 141 -10 489 -7 590 6 17 2 57 6 90 10 422 41 962
209 1345 416 52 28 111 60 130 70 43 22 209 130 310 200 103 73 193 146 319
261 58 53 2791 2782 6072 6065 4042 4043 5991 6000 6045 6068 188 237 380 542
478 760 15 33 38 83 51 111 112 240 230 652 275 964 31 214 37 310 38 565 0
360 -30 601 -118 949 -57 222 -95 335 -180 535 -142 334 -321 631 -547 909
-78 96 -1555 1579 -6086 6110 -3290 3291 -6027 6023 -6082 6071 -505 437
-1181 757 -1820 861 -292 47 -698 69 -930 49z"/>
</g>
</svg>
